<svg width="123" height="120" viewBox="0 0 123 120" fill="none" xmlns="http://www.w3.org/2000/svg">
<path d="M65.8026 0C70.5605 0.0970998 82.1926 1.87907 90.7551 8.22258C93.1948 7.28929 95.4457 6.42421 97.4509 5.64683C102.977 3.50461 112.134 5.64695 105.728 14.8978C98.4639 25.3873 61.2909 73.4549 43.2109 95.9169L111.96 69.43C114.959 68.0668 120.393 62.146 121.017 53.6546C123.625 61.9319 124.697 76.8957 111.96 82.4787C100.586 87.4645 50.5468 106.758 26.9487 115.782C20.1118 118.397 15.4376 115.323 19.0406 109.355C25.2728 99.0332 31.3873 90.6587 34.9133 85.4975C37.7729 81.3119 67.1337 44.4361 81.4808 25.999L12.3418 52.194C9.30269 53.5573 3.18838 56.4786 0.461724 67.385C-0.252386 63.1328 -0.430281 53.8169 2.11719 49.0778C5.3102 43.1378 8.62109 40.119 21.3007 34.8605C29.1603 31.6009 46.2638 25.097 63.1674 18.6939C69.1773 14.9437 76.6926 6.94332 65.8026 0Z" fill="white"/>
<path d="M111.766 26.5844L73.3011 75.1763C86.1226 70.7943 112.759 60.1411 116.732 52.5845C120.705 45.0279 115.077 32.1025 111.766 26.5844Z" fill="#60DF6E"/>
<path d="M44.9636 1.65398C26.4227 5.78284 12.8936 23.1747 8.44659 31.3545C20.6189 26.6479 46.0737 16.8061 50.5142 15.0923C56.0648 12.9499 60.4468 8.47053 56.5517 3.50418C54.0967 0.373982 48.1566 0.943099 44.9636 1.65398Z" fill="white"/>
<path d="M3.65493 77.2222C3.49913 83.4544 10.4272 94.3609 13.6082 98.5481C13.6082 95.1983 18.9964 87.5444 21.6905 84.1361L53.5333 45.4767C47.0089 48.106 31.1557 54.3966 19.9376 58.5255C5.91511 63.6866 3.81073 70.99 3.65493 77.2222Z" fill="white"/>
<path d="M111.377 92.0233L67.1666 110.915C62.0251 113.112 61.8433 115.985 62.395 117.147C62.2977 119.192 65.6865 122.055 80.0206 117.147C95.7751 111.753 106.897 98.3529 111.377 92.0233Z" fill="white"/>
<path d="M111.863 26.5845L79.5334 67.3862C80.637 68.295 86.7978 67.1914 99.496 56.285C112.194 45.3786 113.032 31.9403 111.863 26.5845Z" fill="white"/>
<path d="M57.1362 4.18774C49.7354 6.05742 34.0574 18.2752 27.1436 24.1504C31.3308 22.5274 41.8672 18.4635 50.5145 15.1915C59.1617 11.9196 58.532 6.49237 57.1362 4.18774Z" fill="#60DF6E"/>
<path d="M21.1079 71.2811C11.2921 79.2272 8.96801 88.0951 9.03293 91.5359L13.9991 99.034C14.7002 91.0879 37.0767 65.7305 47.3015 52.9739C42.6273 55.5382 30.9237 63.335 21.1079 71.2811Z" fill="#60DF6E"/>
<path d="M89.6547 106.824C84.5753 109.939 71.5608 116.887 65.004 119.581C63.1536 119.581 60.8135 117.532 62.764 114.225C64.7144 110.918 70.1651 109.515 73.4898 108.09C76.8145 106.665 91.5882 100.105 100.644 96.5995C98.989 99.2287 96.165 102.832 89.6547 106.824Z" fill="#60DF6E"/>
</svg>
