<svg width="188" height="188" viewBox="0 0 188 188" fill="none" xmlns="http://www.w3.org/2000/svg">
<path d="M98.8026 34C103.56 34.0971 115.193 35.8791 123.755 42.2226C126.195 41.2893 128.446 40.4242 130.451 39.6468C135.977 37.5046 145.134 39.6469 138.728 48.8978C131.464 59.3873 94.2909 107.455 76.2109 129.917L144.96 103.43C147.959 102.067 153.393 96.146 154.017 87.6546C156.625 95.9319 157.697 110.896 144.96 116.479C133.586 121.464 83.5468 140.758 59.9487 149.782C53.1118 152.397 48.4376 149.323 52.0406 143.355C58.2728 133.033 64.3873 124.659 67.9133 119.498C70.7729 115.312 100.134 78.4361 114.481 59.999L45.3418 86.194C42.3027 87.5573 36.1884 90.4786 33.4617 101.385C32.7476 97.1328 32.5697 87.8169 35.1172 83.0778C38.3102 77.1378 41.6211 74.119 54.3007 68.8605C62.1603 65.6009 79.2638 59.097 96.1674 52.6939C102.177 48.9437 109.693 40.9433 98.8026 34Z" fill="#343A40"/>
<path d="M144.766 60.5844L106.301 109.176C119.123 104.794 145.759 94.1411 149.732 86.5845C153.705 79.0279 148.077 66.1025 144.766 60.5844Z" fill="#60DF6E"/>
<path d="M77.9636 35.654C59.4227 39.7828 45.8935 57.1747 41.4466 65.3545C53.6189 60.6479 79.0737 50.8061 83.5142 49.0923C89.0648 46.9499 93.4468 42.4705 89.5517 37.5042C87.0967 34.374 81.1566 34.9431 77.9636 35.654Z" fill="#343A40"/>
<path d="M36.6549 111.222C36.4991 117.454 43.4271 128.361 46.6082 132.548C46.6082 129.198 51.9964 121.544 54.6905 118.136L86.5333 79.4767C80.0089 82.106 64.1557 88.3966 52.9376 92.5255C38.9151 97.6866 36.8107 104.99 36.6549 111.222Z" fill="#343A40"/>
<path d="M144.377 126.023L100.167 144.915C95.0251 147.112 94.8433 149.985 95.395 151.147C95.2976 153.192 98.6864 156.055 113.021 151.147C128.775 145.753 139.897 132.353 144.377 126.023Z" fill="#343A40"/>
<path d="M144.863 60.5845L112.533 101.386C113.637 102.295 119.798 101.191 132.496 90.285C145.194 79.3786 146.032 65.9403 144.863 60.5845Z" fill="#343A40"/>
<path d="M90.1362 38.1877C82.7354 40.0574 67.0575 52.2752 60.1436 58.1504C64.3309 56.5274 74.8672 52.4635 83.5145 49.1915C92.1617 45.9196 91.532 40.4924 90.1362 38.1877Z" fill="#60DF6E"/>
<path d="M54.1079 105.281C44.2921 113.227 41.968 122.095 42.0329 125.536L46.9991 133.034C47.7002 125.088 70.0767 99.7305 80.3015 86.9739C75.6273 89.5382 63.9237 97.335 54.1079 105.281Z" fill="#60DF6E"/>
<path d="M122.655 140.824C117.575 143.939 104.561 150.887 98.004 153.581C96.1536 153.581 93.8135 151.532 95.764 148.225C97.7144 144.918 103.165 143.515 106.49 142.09C109.815 140.665 124.588 134.105 133.644 130.599C131.989 133.229 129.165 136.832 122.655 140.824Z" fill="#60DF6E"/>
</svg>
