<svg width="187" height="244" viewBox="0 0 187 244" fill="none" xmlns="http://www.w3.org/2000/svg">
<g opacity="0.12">
<path d="M140.835 -13C151.018 -12.7922 175.914 -8.97829 194.24 4.59855C199.462 2.60106 204.28 0.749534 208.571 -0.914259C220.398 -5.4992 239.998 -0.914012 226.287 18.8853C210.739 41.3356 131.179 144.213 92.483 192.288L239.625 135.599C246.042 132.681 257.674 120.009 259.008 101.835C264.592 119.551 266.884 151.578 239.625 163.527C215.282 174.198 108.184 215.492 57.6774 234.805C43.0446 240.401 33.0406 233.822 40.7519 221.05C54.0906 198.958 67.1772 181.034 74.7239 169.988C80.8442 161.029 143.684 82.1051 174.391 42.6449L26.4149 98.7091C19.9103 101.627 6.824 107.879 0.988215 131.222C-0.540174 122.121 -0.920918 102.183 4.53135 92.0397C11.3653 79.3265 18.4515 72.8656 45.5893 61.6108C62.4109 54.6345 99.017 40.7143 135.195 27.01C148.058 18.9835 164.143 1.86058 140.835 -13Z" fill="#343A40"/>
<path d="M239.208 43.8977L156.884 147.898C184.325 138.519 241.334 115.718 249.838 99.545C258.341 83.3718 246.295 55.708 239.208 43.8977Z" fill="#28A745"/>
<path d="M96.2342 -9.46012C56.5516 -0.62325 27.5956 36.6 18.0779 54.107C44.13 44.0335 98.6101 22.9696 108.114 19.3014C119.994 14.7163 129.372 5.12913 121.036 -5.5002C115.781 -12.1997 103.068 -10.9816 96.2342 -9.46012Z" fill="#343A40"/>
<path d="M7.82243 152.276C7.48897 165.615 22.3168 188.958 29.1251 197.92C29.1251 190.75 40.6573 174.369 46.4233 167.074L114.576 84.3325C100.612 89.9598 66.6814 103.423 42.6718 112.26C12.6598 123.306 8.15588 138.938 7.82243 152.276Z" fill="#343A40"/>
<path d="M238.376 183.955L143.755 224.387C132.75 229.09 132.361 235.239 133.542 237.726C133.334 242.103 140.587 248.23 171.266 237.726C204.985 226.181 228.789 197.502 238.376 183.955Z" fill="#343A40"/>
<path d="M239.417 43.8979L170.223 131.225C172.585 133.17 185.771 130.808 212.948 107.465C240.126 84.1224 241.918 55.3609 239.417 43.8979Z" fill="#343A40"/>
<path d="M122.287 -4.03711C106.447 -0.0355082 72.8921 26.1138 58.0945 38.6883C67.0564 35.2147 89.6071 26.5168 108.115 19.514C126.622 12.5112 125.274 0.89542 122.287 -4.03711Z" fill="#28A745" stroke="#343A40" stroke-width="0.576047"/>
<path d="M45.1766 139.561C24.1682 156.568 19.1939 175.547 19.3329 182.911L29.9618 198.96C31.4624 181.953 79.3541 127.681 101.238 100.378C91.234 105.867 66.185 122.554 45.1766 139.561Z" fill="#28A745" stroke="#343A40" stroke-width="0.576047"/>
<path d="M191.885 215.633C181.014 222.3 153.159 237.169 139.126 242.935C135.166 242.935 130.157 238.549 134.332 231.472C138.506 224.396 150.172 221.392 157.288 218.342C164.404 215.293 196.023 201.252 215.406 193.749C211.863 199.376 205.819 207.088 191.885 215.633Z" fill="#28A745" stroke="#343A40" stroke-width="0.576047"/>
</g>
</svg>
