<svg width="188" height="188" viewBox="0 0 188 188" fill="none" xmlns="http://www.w3.org/2000/svg">
<path d="M96.9273 5.58203C101.685 5.67913 113.317 7.4611 121.88 13.8046C124.32 12.8713 126.57 12.0062 128.576 11.2289C134.101 9.08664 143.259 11.229 136.853 20.4798C129.589 30.9693 92.4156 79.0369 74.3356 101.499L143.085 75.012C146.083 73.6488 151.518 67.728 152.141 59.2366C154.75 67.5139 155.821 82.4777 143.085 88.0607C131.711 93.0465 81.6715 112.34 58.0734 121.364C51.2365 123.979 46.5623 120.905 50.1653 114.937C56.3975 104.615 62.512 96.2407 66.038 91.0796C68.8976 86.894 98.2584 50.0181 112.605 31.5811L43.4666 57.776C40.4274 59.1394 34.3131 62.0606 31.5864 72.967C30.8723 68.7148 30.6944 59.3989 33.2419 54.6598C36.4349 48.7198 39.7458 45.7011 52.4254 40.4425C60.285 37.183 77.3885 30.679 94.2921 24.2759C100.302 20.5257 107.817 12.5254 96.9273 5.58203Z" fill="#343A40"/>
<path d="M142.89 32.1664L104.426 80.7584C117.247 76.3763 143.884 65.7231 147.857 58.1665C151.83 50.6099 146.201 37.6845 142.89 32.1664Z" fill="#60DF6E"/>
<path d="M76.0883 7.23602C57.5474 11.3649 44.0182 28.7567 39.5713 36.9365C51.7436 32.2299 77.1984 22.3882 81.6389 20.6743C87.1895 18.532 91.5715 14.0526 87.6764 9.08622C85.2214 5.95602 79.2813 6.52514 76.0883 7.23602Z" fill="#343A40"/>
<path d="M34.7796 82.8043C34.6238 89.0365 41.5519 99.9429 44.7329 104.13C44.7329 100.78 50.1211 93.1264 52.8152 89.7181L84.658 51.0588C78.1336 53.688 62.2804 59.9787 51.0623 64.1075C37.0398 69.2686 34.9354 76.572 34.7796 82.8043Z" fill="#343A40"/>
<path d="M142.501 97.6053L98.2913 116.497C93.1498 118.694 92.968 121.567 93.5197 122.729C93.4224 124.774 96.8111 127.637 111.145 122.729C126.9 117.335 138.022 103.935 142.501 97.6053Z" fill="#343A40"/>
<path d="M142.988 32.1665L110.658 72.9682C111.762 73.8771 117.923 72.7735 130.621 61.867C143.319 50.9606 144.156 37.5224 142.988 32.1665Z" fill="#343A40"/>
<path d="M88.2609 9.76978C80.8601 11.6395 65.1822 23.8572 58.2683 29.7324C62.4556 28.1094 72.9919 24.0455 81.6392 20.7736C90.2864 17.5017 89.6567 12.0744 88.2609 9.76978Z" fill="#60DF6E"/>
<path d="M52.2326 76.8631C42.4168 84.8092 40.0927 93.6772 40.1577 97.1179L45.1238 104.616C45.8249 96.6699 68.2014 71.3125 78.4262 58.5559C73.7521 61.1202 62.0484 68.917 52.2326 76.8631Z" fill="#60DF6E"/>
<path d="M120.779 112.406C115.7 115.521 102.686 122.469 96.1287 125.163C94.2783 125.163 91.9382 123.114 93.8887 119.807C95.8391 116.501 101.29 115.097 104.615 113.672C107.939 112.247 122.713 105.687 131.769 102.182C130.114 104.811 127.29 108.414 120.779 112.406Z" fill="#60DF6E"/>
<path d="M55.5355 143.432L55.6058 143.432C57.0784 143.459 58.4106 144.321 59.0364 145.659C59.6721 147.018 59.4638 148.622 58.5022 149.774L38.113 174.19H55.5355C57.6701 174.19 59.4004 175.92 59.4004 178.055C59.4004 180.189 57.6701 181.919 55.5355 181.919H29.8501C28.3498 181.919 26.985 181.051 26.3493 179.692C25.7136 178.333 25.9218 176.729 26.8835 175.577L47.2726 151.161H30.2527C28.1182 151.161 26.3878 149.431 26.3878 147.296C26.3878 145.162 28.1182 143.432 30.2527 143.432H55.5355Z" fill="#343A40"/>
<path d="M115.361 143.432L115.431 143.432C116.904 143.459 118.236 144.321 118.862 145.659C119.497 147.018 119.289 148.622 118.327 149.774L97.9383 174.19H115.361C117.495 174.19 119.226 175.92 119.226 178.055C119.226 180.189 117.495 181.919 115.361 181.919H89.6754C88.1751 181.919 86.8103 181.051 86.1746 179.692C85.5389 178.333 85.7471 176.729 86.7088 175.577L107.098 151.161H90.078C87.9435 151.161 86.2131 149.431 86.2131 147.296C86.2131 145.162 87.9435 143.432 90.078 143.432H115.361Z" fill="#343A40"/>
<path d="M70.512 178.135V155.509C70.512 153.375 72.2424 151.644 74.3769 151.644C76.5114 151.644 78.2418 153.375 78.2418 155.509V178.135C78.2418 180.27 76.5114 182 74.3769 182C72.2424 182 70.512 180.27 70.512 178.135Z" fill="#343A40"/>
<path d="M153.285 162.514C153.285 156.066 148.058 150.839 141.61 150.839C135.162 150.839 129.935 156.066 129.935 162.514C129.935 168.963 135.162 174.19 141.61 174.19V181.919C130.893 181.919 122.205 173.232 122.205 162.514C122.205 151.797 130.893 143.11 141.61 143.11C152.327 143.11 161.015 151.797 161.015 162.514C161.015 173.232 152.327 181.919 141.61 181.919V174.19C148.058 174.19 153.285 168.963 153.285 162.514Z" fill="#343A40"/>
<circle cx="74.2158" cy="143.432" r="4.02593" fill="#343A40"/>
</svg>
