<svg width="81" height="26" viewBox="0 0 81 26" fill="none" xmlns="http://www.w3.org/2000/svg">
<path d="M17.7263 2.41504L17.7685 2.41542C18.6519 2.4314 19.451 2.94866 19.8264 3.75113C20.2077 4.56638 20.0828 5.52874 19.5059 6.21956L7.27512 20.8659H17.7263C19.0068 20.8659 20.0448 21.9039 20.0448 23.1843C20.0448 24.4647 19.0068 25.5027 17.7263 25.5027H2.31846C1.41845 25.5027 0.59976 24.9818 0.218423 24.1666C-0.162907 23.3514 -0.0380052 22.389 0.538886 21.6982L12.7697 7.05189H2.55996C1.27953 7.05189 0.241536 6.0139 0.241536 4.73347C0.241536 3.45303 1.27953 2.41504 2.55996 2.41504H17.7263Z" fill="white"/>
<path d="M53.6135 2.41504L53.6557 2.41542C54.5391 2.4314 55.3382 2.94866 55.7136 3.75113C56.0949 4.56638 55.97 5.52873 55.3931 6.21956L43.1623 20.8659H53.6135C54.894 20.8659 55.932 21.9039 55.932 23.1843C55.932 24.4647 54.894 25.5027 53.6135 25.5027H38.2057C37.3057 25.5027 36.487 24.9818 36.1056 24.1666C35.7243 23.3514 35.8492 22.389 36.4261 21.6982L48.6569 7.05189H38.4472C37.1667 7.05189 36.1287 6.0139 36.1287 4.73347C36.1287 3.45303 37.1667 2.41504 38.4472 2.41504H53.6135Z" fill="white"/>
<path d="M26.7102 23.2324V9.65998C26.7102 8.37955 27.7482 7.34155 29.0286 7.34155C30.3091 7.34155 31.3471 8.37955 31.3471 9.65998V23.2324C31.3471 24.5129 30.3091 25.5509 29.0286 25.5509C27.7482 25.5509 26.7102 24.5129 26.7102 23.2324Z" fill="white"/>
<path d="M76.3633 13.8624C76.3633 9.99439 73.2276 6.85878 69.3597 6.85878C65.4917 6.85878 62.3561 9.99439 62.3561 13.8624C62.3561 17.7303 65.4917 20.8659 69.3597 20.8659V25.5028C62.9308 25.5028 57.7192 20.2912 57.7192 13.8624C57.7192 7.43352 62.9308 2.22192 69.3597 2.22192C75.7885 2.22192 81.0001 7.43352 81.0001 13.8624C81.0001 20.2912 75.7885 25.5028 69.3597 25.5028V20.8659C73.2276 20.8659 76.3633 17.7303 76.3633 13.8624Z" fill="white"/>
<circle cx="28.9319" cy="2.41503" r="2.41503" fill="white"/>
</svg>
