<svg width="188" height="188" viewBox="0 0 188 188" fill="none" xmlns="http://www.w3.org/2000/svg">
<path d="M97.492 7C102.22 7.09648 113.778 8.86715 122.286 15.1704C124.71 14.243 126.947 13.3834 128.94 12.611C134.43 10.4824 143.53 12.6111 137.164 21.8033C129.946 32.2262 93.009 79.9889 75.0437 102.308L143.357 75.9895C146.336 74.6349 151.736 68.7517 152.356 60.3142C154.948 68.5389 156.012 83.4078 143.357 88.9554C132.055 93.9096 82.333 113.081 58.8846 122.048C52.0911 124.645 47.4466 121.591 51.0267 115.662C57.2194 105.405 63.2951 97.0835 66.7988 91.9551C69.6402 87.796 98.8147 51.1541 113.071 32.8341L44.3705 58.8628C41.3506 60.2175 35.2751 63.1203 32.5657 73.9575C31.8562 69.7322 31.6794 60.4754 34.2107 55.7664C37.3835 49.8641 40.6733 46.8645 53.2725 41.6393C61.0822 38.4004 78.0772 31.9377 94.8735 25.5753C100.845 21.8489 108.313 13.8993 97.492 7Z" fill="white"/>
<path d="M143.163 33.4157L104.943 81.6994C117.683 77.3451 144.15 66.7595 148.098 59.2508C152.046 51.7422 146.453 38.8988 143.163 33.4157Z" fill="#60DF6E"/>
<path d="M76.7853 8.6435C58.362 12.7462 44.9187 30.0277 40.4999 38.1556C52.595 33.4788 77.8883 23.6995 82.3006 21.9965C87.816 19.8678 92.1702 15.4168 88.2998 10.482C85.8604 7.37162 79.958 7.93713 76.7853 8.6435Z" fill="white"/>
<path d="M35.7387 83.7323C35.5839 89.9249 42.4679 100.762 45.6288 104.923C45.6288 101.594 50.9828 93.9889 53.6598 90.6023L85.3006 52.1882C78.8176 54.8007 63.0649 61.0515 51.9181 65.1542C37.9845 70.2825 35.8935 77.5396 35.7387 83.7323Z" fill="white"/>
<path d="M142.777 98.4394L98.8474 117.211C93.7385 119.394 93.5578 122.249 94.1061 123.404C94.0093 125.436 97.3766 128.28 111.62 123.404C127.274 118.044 138.326 104.729 142.777 98.4394Z" fill="white"/>
<path d="M143.26 33.4158L111.136 73.9586C112.232 74.8617 118.354 73.7651 130.972 62.9279C143.589 52.0907 144.421 38.7377 143.26 33.4158Z" fill="white"/>
<path d="M88.8806 11.1612C81.5268 13.019 65.9483 25.1592 59.0783 30.9971C63.239 29.3845 73.7085 25.3463 82.3009 22.0951C90.8933 18.844 90.2676 13.4512 88.8806 11.1612Z" fill="#60DF6E"/>
<path d="M53.0809 77.8288C43.3274 85.7245 41.0181 94.5362 41.0826 97.9551L46.0172 105.406C46.7139 97.51 68.9484 72.3134 79.1083 59.6378C74.4638 62.1858 62.8344 69.9331 53.0809 77.8288Z" fill="#60DF6E"/>
<path d="M121.193 113.146C116.146 116.242 103.214 123.145 96.6985 125.822C94.8599 125.822 92.5346 123.786 94.4727 120.5C96.4108 117.215 101.827 115.82 105.13 114.404C108.434 112.989 123.114 106.47 132.113 102.987C130.468 105.599 127.662 109.179 121.193 113.146Z" fill="#60DF6E"/>
<path d="M56.3629 143.975L56.4327 143.976C57.896 144.002 59.2197 144.859 59.8415 146.188C60.4732 147.539 60.2663 149.133 59.3107 150.277L39.0509 174.538H56.3629C58.4839 174.538 60.2033 176.257 60.2033 178.378C60.2033 180.499 58.4839 182.219 56.3629 182.219H30.8404C29.3496 182.219 27.9935 181.356 27.3618 180.005C26.7302 178.655 26.937 177.061 27.8926 175.917L48.1524 151.656H31.2405C29.1195 151.656 27.4001 149.936 27.4001 147.815C27.4001 145.694 29.1195 143.975 31.2405 143.975H56.3629Z" fill="white"/>
<path d="M115.809 143.975L115.879 143.976C117.342 144.002 118.665 144.859 119.287 146.188C119.919 147.539 119.712 149.133 118.756 150.277L98.4967 174.538H115.809C117.93 174.538 119.649 176.257 119.649 178.378C119.649 180.499 117.93 182.219 115.809 182.219H90.2862C88.7954 182.219 87.4392 181.356 86.8076 180.005C86.1759 178.655 86.3828 177.061 87.3384 175.917L107.598 151.656H90.6862C88.5652 151.656 86.8458 149.936 86.8458 147.815C86.8458 145.694 88.5652 143.975 90.6862 143.975H115.809Z" fill="white"/>
<path d="M71.2443 178.458V155.976C71.2443 153.855 72.9637 152.136 75.0847 152.136C77.2057 152.136 78.9251 153.855 78.9251 155.976V178.458C78.9251 180.579 77.2057 182.299 75.0847 182.299C72.9637 182.299 71.2443 180.579 71.2443 178.458Z" fill="white"/>
<path d="M153.492 162.937C153.492 156.53 148.298 151.336 141.891 151.336C135.484 151.336 130.29 156.53 130.29 162.937C130.29 169.344 135.484 174.538 141.891 174.538V182.219C131.242 182.219 122.609 173.586 122.609 162.937C122.609 152.288 131.242 143.655 141.891 143.655C152.54 143.655 161.173 152.288 161.173 162.937C161.173 173.586 152.54 182.219 141.891 182.219V174.538C148.298 174.538 153.492 169.344 153.492 162.937Z" fill="white"/>
<circle cx="74.9247" cy="143.975" r="4.00039" fill="white"/>
</svg>
